:FULLY-SPECIFIED
:FORCE-ALL-JOINTS-BE-3DOF
:DEGREES
2548
root 4.00992 13.7566 -23.6581 -120.715 87.9956 -122.313
lfemur -36.7605 4.1556 -13.9617
ltibia 89.5752 -0 0
lfoot -25.5928 27.2375 -0.0225555
ltoes -39.4616 0 0
rfemur -55.0621 -18.8324 6.35298
rtibia 57.2631 -0 0
rfoot 4.74405 5.79082 0.0293492
rtoes 6.94393 -0 0
lowerback 17.2342 -0.470987 -3.40951
upperback -0.530555 -0.939862 3.15088
thorax -10.183 -0.144471 5.64176
lowerneck 5.1811 -14.1731 -15.1341
upperneck -0.0566943 -19.8441 14.6398
head 2.17075 -10.0725 6.17663
lclavicle 1.05304e-14 -9.94578e-15 -8.9978e-32
lhumerus -48.3707 -47.1932 113.1
lradius 105.745 -0 0
lwrist 78.837 0 0
lhand 6.44666 40.0128 0.0784198
lfingers 7.12502 -0 0
lthumb 31.7455 67.2457 0.0693462
rclavicle 1.05304e-14 -9.94578e-15 -8.9978e-32
rhumerus 9.70197 -12.2836 -59.7443
rradius 73.7608 -0 0
rwrist 17.0402 0 0
rhand -35.9057 -46.187 0.0442171
rfingers 7.12502 -0 0
rthumb -9.01904 -75.9531 0.0445844
2549
root 3.96459 13.7724 -23.7173 -150.073 86.5573 -151.583
lfemur -36.922 4.35784 -13.9366
ltibia 89.5266 -0 0
lfoot -25.4614 27.0216 -0.0446161
ltoes -39.4566 0 0
rfemur -54.9012 -18.8239 6.58884
rtibia 57.3795 -0 0
rfoot 4.45395 5.66452 0.0580594
rtoes 6.82804 -0 0
lowerback 17.2572 -0.435441 -3.39317
upperback -0.526243 -0.892252 3.14124
thorax -10.1954 -0.123311 5.60875
lowerneck 5.05977 -13.9443 -14.9723
upperneck 0.0199609 -19.5182 14.4823
head 2.16775 -9.90485 6.12278
lclavicle 1.08234e-14 -9.55477e-15 -1.77956e-31
lhumerus -47.2707 -47.8089 112.655
lradius 105.734 -0 0
lwrist 77.682 0 0
lhand 6.17935 39.6542 0.155169
lfingers 7.12502 -0 0
lthumb 31.4878 66.9151 0.137207
rclavicle 1.08234e-14 -9.55477e-15 -1.77956e-31
rhumerus 9.74185 -11.3602 -59.8157
rradius 73.9309 -0 0
rwrist 16.6896 0 0
rhand -35.5818 -46.0177 0.0874782
rfingers 7.12502 -0 0
rthumb -8.70668 -75.776 0.0882039
2550
root 3.91925 13.7881 -23.7765 -160.934 84.7696 -162.356
lfemur -37.0834 4.56015 -13.9121
ltibia 89.4781 -0 0
lfoot -25.33 26.8056 -0.0661815
ltoes -39.4515 0 0
rfemur -54.7403 -18.816 6.82471
rtibia 57.4958 -0 0
rfoot 4.16379 5.53807 0.0861296
rtoes 6.71216 -0 0
lowerback 17.2803 -0.399901 -3.37683
upperback -0.52194 -0.844643 3.1316
thorax -10.2078 -0.102157 5.57573
lowerneck 4.93923 -13.7151 -14.8113
upperneck 0.0955146 -19.1922 14.3257
head 2.16459 -9.73723 6.06895
lclavicle 1.11164e-14 -9.16375e-15 -2.63935e-31
lhumerus -46.1504 -48.4186 112.186
lradius 105.724 -0 0
lwrist 76.5269 0 0
lhand 5.91156 39.2952 0.230243
lfingers 7.12502 -0 0
lthumb 31.2297 66.5842 0.203579
rclavicle 1.11164e-14 -9.16375e-15 -2.63935e-31
rhumerus 9.78043 -10.4368 -59.8863
rradius 74.1011 -0 0
rwrist 16.3391 0 0
rhand -35.2577 -45.8483 0.129782
rfingers 7.12502 -0 0
rthumb -8.39418 -75.5986 0.130857
2551
root 3.87392 13.8038 -23.8357 -166.196 82.8913 -167.529
lfemur -37.2449 4.76252 -13.8881
ltibia 89.4295 -0 0
lfoot -25.1984 26.5896 -0.0872513
ltoes -39.4464 0 0
rfemur -54.5794 -18.8087 7.06059
rtibia 57.6122 -0 0
rfoot 3.87357 5.41148 0.113559
rtoes 6.59627 -0 0
lowerback 17.3034 -0.364367 -3.36046
upperback -0.517645 -0.797032 3.12197
thorax -10.2202 -0.0810111 5.54271
lowerneck 4.81948 -13.4857 -14.6508
upperneck 0.169978 -18.8659 14.1698
head 2.16127 -9.56962 6.01514
lclavicle 1.14094e-14 -8.77273e-15 -3.47915e-31
lhumerus -45.009 -49.022 111.694
lradius 105.714 -0 0
lwrist 75.3718 0 0
lhand 5.6433 38.9359 0.303637
lfingers 7.12502 -0 0
lthumb 30.9712 66.253 0.268458
rclavicle 1.14094e-14 -8.77273e-15 -3.47915e-31
rhumerus 9.81775 -9.5133 -59.9561
rradius 74.2712 -0 0
rwrist 15.9885 0 0
rhand -34.9335 -45.6785 0.171125
rfingers 7.12502 -0 0
rthumb -8.08155 -75.421 0.172542
2552
root 3.82858 13.8195 -23.8949 -169.265 80.9789 -170.509
lfemur -37.4063 4.96497 -13.8647
ltibia 89.381 -0 0
lfoot -25.0668 26.3736 -0.107825
ltoes -39.4413 0 0
rfemur -54.4184 -18.8021 7.29648
rtibia 57.7286 -0 0
rfoot 3.58328 5.28476 0.140347
rtoes 6.48038 -0 0
lowerback 17.3265 -0.328841 -3.34408
upperback -0.513358 -0.749421 3.11234
thorax -10.2326 -0.059872 5.50969
lowerneck 4.70049 -13.2559 -14.491
upperneck 0.243361 -18.5394 14.0147
head 2.15779 -9.402 5.96135
lclavicle 1.17023e-14 -8.38172e-15 -4.29895e-31
lhumerus -43.8455 -49.6188 111.177
lradius 105.703 -0 0
lwrist 74.2168 0 0
lhand 5.37459 38.5763 0.375346
lfingers 7.12502 -0 0
lthumb 30.7123 65.9215 0.331842
rclavicle 1.17023e-14 -8.38172e-15 -4.29895e-31
rhumerus 9.85383 -8.58979 -60.025
rradius 74.4414 -0 0
rwrist 15.638 0 0
rhand -34.6092 -45.5086 0.211508
rfingers 7.12502 -0 0
rthumb -7.76879 -75.2432 0.213256
2553
root 3.78324 13.8353 -23.9541 -171.274 79.0503 -172.429
lfemur -37.5676 5.16747 -13.8419
ltibia 89.3325 -0 0
lfoot -24.9351 26.1575 -0.127902
ltoes -39.4363 0 0
rfemur -54.2575 -18.7961 7.53238
rtibia 57.845 -0 0
rfoot 3.29294 5.1579 0.166492
rtoes 6.36449 -0 0
lowerback 17.3496 -0.293321 -3.32769
upperback -0.509079 -0.701809 3.10271
thorax -10.245 -0.03874 5.47666
lowerneck 4.58228 -13.0257 -14.3319
upperneck 0.315674 -18.2128 13.8602
head 2.15415 -9.23439 5.90757
lclavicle 1.19953e-14 -7.9907e-15 -5.09875e-31
lhumerus -42.6594 -50.2086 110.635
lradius 105.693 -0 0
lwrist 73.0617 0 0
lhand 5.10543 38.2163 0.445366
lfingers 7.12502 -0 0
lthumb 30.453 65.5898 0.393726
rclavicle 1.19953e-14 -7.9907e-15 -5.09875e-31
rhumerus 9.88872 -7.66623 -60.0933
rradius 74.6115 -0 0
rwrist 15.2874 0 0
rhand -34.2848 -45.3384 0.250928
rfingers 7.12502 -0 0
rthumb -7.45591 -75.0651 0.253
2554
root 3.73791 13.851 -24.0133 -172.695 77.1126 -173.762
lfemur -37.7289 5.37005 -13.8196
ltibia 89.2839 -0 0
lfoot -24.8034 25.9414 -0.147483
ltoes -39.4312 0 0
rfemur -54.0965 -18.7907 7.76829
rtibia 57.9613 -0 0
rfoot 3.00254 5.03091 0.191994
rtoes 6.2486 -0 0
lowerback 17.3727 -0.257807 -3.31129
upperback -0.504808 -0.654196 3.09309
thorax -10.2575 -0.0176152 5.44362
lowerneck 4.46483 -12.7953 -14.1734
upperneck 0.386928 -17.886 13.7066
head 2.15036 -9.06678 5.85381
lclavicle 1.22883e-14 -7.59968e-15 -5.87856e-31
lhumerus -41.4496 -50.7909 110.067
lradius 105.683 -0 0
lwrist 71.9066 0 0
lhand 4.83583 37.856 0.513694
lfingers 7.12502 -0 0
lthumb 30.1934 65.2577 0.454107
rclavicle 1.22883e-14 -7.59968e-15 -5.87856e-31
rhumerus 9.92242 -6.74264 -60.1608
rradius 74.7817 -0 0
rwrist 14.9369 0 0
rhand -33.9603 -45.168 0.289384
rfingers 7.12502 -0 0
rthumb -7.1429 -74.8869 0.29177
2555
root 3.69257 13.8667 -24.0726 -173.757 75.1696 -174.734
lfemur -37.8903 5.57268 -13.7979
ltibia 89.2354 -0 0
lfoot -24.6715 25.7252 -0.166566
ltoes -39.4261 0 0
rfemur -53.9355 -18.786 8.00421
rtibia 58.0777 -0 0
rfoot 2.71208 4.90379 0.216852
rtoes 6.13271 -0 0
lowerback 17.3959 -0.2223 -3.29487
upperback -0.500545 -0.606582 3.08347
thorax -10.2699 0.00350237 5.41058
lowerneck 4.34814 -12.5646 -14.0155
upperneck 0.457133 -17.559 13.5536
head 2.14641 -8.89918 5.80006
lclavicle 1.25813e-14 -7.20867e-15 -6.63838e-31
lhumerus -40.2154 -51.3654 109.473
lradius 105.672 -0 0
lwrist 70.7516 0 0
lhand 4.56581 37.4953 0.580324
lfingers 7.12502 -0 0
lthumb 29.9335 64.9254 0.512981
rclavicle 1.25813e-14 -7.20867e-15 -6.63838e-31
rhumerus 9.95497 -5.819 -60.2276
rradius 74.9518 -0 0
rwrist 14.5863 0 0
rhand -33.6356 -44.9974 0.326873
rfingers 7.12502 -0 0
rthumb -6.82978 -74.7084 0.329566
2556
root 3.64724 13.8824 -24.1318 -174.585 73.2229 -175.472
lfemur -38.0515 5.77537 -13.7767
ltibia 89.1869 -0 0
lfoot -24.5396 25.509 -0.185151
ltoes -39.421 0 0
rfemur -53.7745 -18.7819 8.24013
rtibia 58.1941 -0 0
rfoot 2.42157 4.77654 0.241065
rtoes 6.01683 -0 0
lowerback 17.419 -0.1868 -3.27843
upperback -0.49629 -0.558968 3.07386
thorax -10.2824 0.0246128 5.37754
lowerneck 4.2322 -12.3335 -13.8582
upperneck 0.526297 -17.2318 13.4013
head 2.1423 -8.73158 5.74633
lclavicle 1.28743e-14 -6.81765e-15 -7.3782e-31
lhumerus -38.9561 -51.9317 108.851
lradius 105.662 -0 0
lwrist 69.5965 0 0
lhand 4.29536 37.1344 0.645252
lfingers 7.12502 -0 0
lthumb 29.6732 64.5928 0.570347
rclavicle 1.28743e-14 -6.81765e-15 -7.3782e-31
rhumerus 9.98639 -4.89533 -60.2938
rradius 75.122 -0 0
rwrist 14.2358 0 0
rhand -33.3109 -44.8265 0.363395
rfingers 7.12502 -0 0
rthumb -6.51653 -74.5297 0.366385
2557
root 3.6019 13.8982 -24.191 -175.251 71.2739 -176.048
lfemur -38.2128 5.97813 -13.7562
ltibia 89.1383 -0 0
lfoot -24.4076 25.2927 -0.203239
ltoes -39.416 0 0
rfemur -53.6135 -18.7784 8.47606
rtibia 58.3105 -0 0
rfoot 2.131 4.64918 0.264633
rtoes 5.90094 -0 0
lowerback 17.4422 -0.151307 -3.26198
upperback -0.492043 -0.511353 3.06425
thorax -10.2949 0.045716 5.34449
lowerneck 4.11702 -12.1021 -13.7016
upperneck 0.594431 -16.9044 13.2497
head 2.13804 -8.56399 5.6926
lclavicle 1.31673e-14 -6.42664e-15 -8.09802e-31
lhumerus -37.6706 -52.4892 108.201
lradius 105.652 -0 0
lwrist 68.4415 0 0
lhand 4.02451 36.7732 0.708475
lfingers 7.12502 -0 0
lthumb 29.4125 64.26 0.6262
rclavicle 1.31673e-14 -6.42664e-15 -8.09802e-31
rhumerus 10.0167 -3.97162 -60.3595
rradius 75.2921 -0 0
rwrist 13.8852 0 0
rhand -32.986 -44.6555 0.398948
rfingers 7.12502 -0 0
rthumb -6.20317 -74.3508 0.402227
2558
root 3.55656 13.9139 -24.2502 -175.801 69.3231 -176.508
lfemur -38.3741 6.18093 -13.7362
ltibia 89.0898 -0 0
lfoot -24.2756 25.0764 -0.220828
ltoes -39.4109 0 0
rfemur -53.4524 -18.7755 8.712
rtibia 58.4268 -0 0
rfoot 1.84039 4.5217 0.287555
rtoes 5.78505 -0 0
lowerback 17.4653 -0.11582 -3.24552
upperback -0.487804 -0.463738 3.05464
thorax -10.3074 0.066812 5.31143
lowerneck 4.00258 -11.8704 -13.5455
upperneck 0.661544 -16.5769 13.0987
head 2.13361 -8.39639 5.63889
lclavicle 1.34603e-14 -6.03562e-15 -8.79785e-31
lhumerus -36.3583 -53.0375 107.521
lradius 105.641 -0 0
lwrist 67.2864 0 0
lhand 3.75327 36.4116 0.769988
lfingers 7.12502 -0 0
lthumb 29.1516 63.9269 0.680538
rclavicle 1.34603e-14 -6.03562e-15 -8.79785e-31
rhumerus 10.0459 -3.04788 -60.4246
rradius 75.4623 -0 0
rwrist 13.5347 0 0
rhand -32.661 -44.4842 0.43353
rfingers 7.12502 -0 0
rthumb -5.8897 -74.1718 0.43709
